<?xml version='1.0' encoding='UTF-8' standalone='no'?>
<!-- Created with Fritzing (http://www.fritzing.org/) -->
<svg xmlns="http://www.w3.org/2000/svg"  y="0in" height="2.2in" baseProfile="tiny" x="0in" version="1.2" viewBox="0 0 237.6 158.4" width="3.3in">
 <desc >Fritzing schematic generated by brd2svg</desc>
 <g  id="schematic">
  <rect  y="14.4" height="129.6" x="14.4" stroke-width="0.9" stroke-linejoin="round" stroke-linecap="round" fill="none" width="208.35" stroke="#000000"/>
  <text  y="75.7001" text-anchor="middle" x="118.8" id="label" font-size="3.5" font-family="'Droid Sans'" fill="#000000" stroke="none">TCAN4551-BoB-R2B</text>
  <line  x1="0.349999" x2="14.4" stroke-width="0.699998" y2="50.4" stroke-linejoin="round" stroke-linecap="round" fill="none" stroke="#787878" y1="50.4"/>
  <rect  y="50.05" height="0.699998" x="0" id="connector35pin" connectorName="1" stroke-width="0" fill="none" width="14.4"/>
  <rect  y="50.05" height="0.699998" x="0" id="connector35terminal" stroke-width="0" fill="none" width="0"/>
  <text  y="51.1" text-anchor="start" x="15.8" id="label35" font-size="3.5" font-family="'Droid Sans'" fill="#8c8c8c" stroke="none">1</text>
  <line  x1="0.349999" x2="14.4" stroke-width="0.699998" y2="57.6" stroke-linejoin="round" stroke-linecap="round" fill="none" stroke="#787878" y1="57.6"/>
  <rect  y="57.25" height="0.699998" x="0" id="connector60pin" connectorName="12V_IN" stroke-width="0" fill="none" width="14.4"/>
  <rect  y="57.25" height="0.699998" x="0" id="connector60terminal" stroke-width="0" fill="none" width="0"/>
  <text  y="58.3" text-anchor="start" x="15.8" id="label60" font-size="3.5" font-family="'Droid Sans'" fill="#8c8c8c" stroke="none">12V_IN</text>
  <line  x1="0.349999" x2="14.4" stroke-width="0.699998" y2="64.8" stroke-linejoin="round" stroke-linecap="round" fill="none" stroke="#787878" y1="64.8"/>
  <rect  y="64.45" height="0.699998" x="0" id="connector38pin" connectorName="4" stroke-width="0" fill="none" width="14.4"/>
  <rect  y="64.45" height="0.699998" x="0" id="connector38terminal" stroke-width="0" fill="none" width="0"/>
  <text  y="65.5" text-anchor="start" x="15.8" id="label38" font-size="3.5" font-family="'Droid Sans'" fill="#8c8c8c" stroke="none">4</text>
  <line  x1="0.349999" x2="14.4" stroke-width="0.699998" y2="72" stroke-linejoin="round" stroke-linecap="round" fill="none" stroke="#787878" y1="72"/>
  <rect  y="71.65" height="0.699998" x="0" id="connector39pin" connectorName="5" stroke-width="0" fill="none" width="14.4"/>
  <rect  y="71.65" height="0.699998" x="0" id="connector39terminal" stroke-width="0" fill="none" width="0"/>
  <text  y="72.6998" text-anchor="start" x="15.8" id="label39" font-size="3.5" font-family="'Droid Sans'" fill="#8c8c8c" stroke="none">5</text>
  <line  x1="0.349999" x2="14.4" stroke-width="0.699998" y2="79.2" stroke-linejoin="round" stroke-linecap="round" fill="none" stroke="#787878" y1="79.2"/>
  <rect  y="78.8501" height="0.699998" x="0" id="connector40pin" connectorName="6" stroke-width="0" fill="none" width="14.4"/>
  <rect  y="78.8501" height="0.699998" x="0" id="connector40terminal" stroke-width="0" fill="none" width="0"/>
  <text  y="79.8998" text-anchor="start" x="15.8" id="label40" font-size="3.5" font-family="'Droid Sans'" fill="#8c8c8c" stroke="none">6</text>
  <line  x1="0.349999" x2="14.4" stroke-width="0.699998" y2="86.4" stroke-linejoin="round" stroke-linecap="round" fill="none" stroke="#787878" y1="86.4"/>
  <rect  y="86.0501" height="0.699998" x="0" id="connector42pin" connectorName="8" stroke-width="0" fill="none" width="14.4"/>
  <rect  y="86.0501" height="0.699998" x="0" id="connector42terminal" stroke-width="0" fill="none" width="0"/>
  <text  y="87.0998" text-anchor="start" x="15.8" id="label42" font-size="3.5" font-family="'Droid Sans'" fill="#8c8c8c" stroke="none">8</text>
  <line  x1="0.349999" x2="14.4" stroke-width="0.699998" y2="93.6" stroke-linejoin="round" stroke-linecap="round" fill="none" stroke="#787878" y1="93.6"/>
  <rect  y="93.2501" height="0.699998" x="0" id="connector43pin" connectorName="9" stroke-width="0" fill="none" width="14.4"/>
  <rect  y="93.2501" height="0.699998" x="0" id="connector43terminal" stroke-width="0" fill="none" width="0"/>
  <text  y="94.2998" text-anchor="start" x="15.8" id="label43" font-size="3.5" font-family="'Droid Sans'" fill="#8c8c8c" stroke="none">9</text>
  <line  x1="0.349999" x2="14.4" stroke-width="0.699998" y2="100.8" stroke-linejoin="round" stroke-linecap="round" fill="none" stroke="#787878" y1="100.8"/>
  <rect  y="100.45" height="0.699998" x="0" id="connector53pin" connectorName="CAN_!INT" stroke-width="0" fill="none" width="14.4"/>
  <rect  y="100.45" height="0.699998" x="0" id="connector53terminal" stroke-width="0" fill="none" width="0"/>
  <text  y="101.5" text-anchor="start" x="15.8" id="label53" font-size="3.5" font-family="'Droid Sans'" fill="#8c8c8c" stroke="none">CAN_!INT</text>
  <line  x1="0.349999" x2="14.4" stroke-width="0.699998" y2="108" stroke-linejoin="round" stroke-linecap="round" fill="none" stroke="#787878" y1="108"/>
  <rect  y="107.65" height="0.699998" x="0" id="connector47pin" connectorName="CAN_!WKRQ" stroke-width="0" fill="none" width="14.4"/>
  <rect  y="107.65" height="0.699998" x="0" id="connector47terminal" stroke-width="0" fill="none" width="0"/>
  <text  y="108.7" text-anchor="start" x="15.8" id="label47" font-size="3.5" font-family="'Droid Sans'" fill="#8c8c8c" stroke="none">CAN_!WKRQ</text>
  <line  x1="0.349999" x2="14.4" stroke-width="0.699998" y2="115.2" stroke-linejoin="round" stroke-linecap="round" fill="none" stroke="#787878" y1="115.2"/>
  <rect  y="114.85" height="0.699998" x="0" id="connector46pin" connectorName="CAN_CLOCK_IN" stroke-width="0" fill="none" width="14.4"/>
  <rect  y="114.85" height="0.699998" x="0" id="connector46terminal" stroke-width="0" fill="none" width="0"/>
  <text  y="115.9" text-anchor="start" x="15.8" id="label46" font-size="3.5" font-family="'Droid Sans'" fill="#8c8c8c" stroke="none">CAN_CLOCK_IN</text>
  <line  x1="0.349999" x2="14.4" stroke-width="0.699998" y2="122.4" stroke-linejoin="round" stroke-linecap="round" fill="none" stroke="#787878" y1="122.4"/>
  <rect  y="122.05" height="0.699998" x="0" id="connector48pin" connectorName="CAN_GPO1" stroke-width="0" fill="none" width="14.4"/>
  <rect  y="122.05" height="0.699998" x="0" id="connector48terminal" stroke-width="0" fill="none" width="0"/>
  <text  y="123.1" text-anchor="start" x="15.8" id="label48" font-size="3.5" font-family="'Droid Sans'" fill="#8c8c8c" stroke="none">CAN_GPO1</text>
  <line  x1="222.85" x2="237.25" stroke-width="0.699998" y2="50.4" stroke-linejoin="round" stroke-linecap="round" fill="none" stroke="#787878" y1="50.4"/>
  <rect  y="50.05" connectorname="CAN_WAKE" height="0.699998" x="223.2" id="connector58pin" stroke-width="0" fill="none" width="14.4"/>
  <rect  y="50.05" height="0.699998" x="237.6" id="connector58terminal" stroke-width="0" fill="none" width="0"/>
  <text  y="51.1" text-anchor="end" x="221.8" id="label58" font-size="3.5" font-family="'Droid Sans'" fill="#8c8c8c" stroke="none">CAN_WAKE</text>
  <line  x1="222.85" x2="237.25" stroke-width="0.699998" y2="57.6" stroke-linejoin="round" stroke-linecap="round" fill="none" stroke="#787878" y1="57.6"/>
  <rect  y="57.25" connectorname="CAN_RST" height="0.699998" x="223.2" id="connector63pin" stroke-width="0" fill="none" width="14.4"/>
  <rect  y="57.25" height="0.699998" x="237.6" id="connector63terminal" stroke-width="0" fill="none" width="0"/>
  <text  y="58.3" text-anchor="end" x="221.8" id="label63" font-size="3.5" font-family="'Droid Sans'" fill="#8c8c8c" stroke="none">CAN_RST</text>
  <line  x1="222.85" x2="237.25" stroke-width="0.699998" y2="64.8" stroke-linejoin="round" stroke-linecap="round" fill="none" stroke="#787878" y1="64.8"/>
  <rect  y="64.45" connectorname="CAN_P" height="0.699998" x="223.2" id="connector41pin" stroke-width="0" fill="none" width="14.4"/>
  <rect  y="64.45" height="0.699998" x="237.6" id="connector41terminal" stroke-width="0" fill="none" width="0"/>
  <text  y="65.5" text-anchor="end" x="221.8" id="label41" font-size="3.5" font-family="'Droid Sans'" fill="#8c8c8c" stroke="none">CAN_P</text>
  <line  x1="222.85" x2="237.25" stroke-width="0.699998" y2="72" stroke-linejoin="round" stroke-linecap="round" fill="none" stroke="#787878" y1="72"/>
  <rect  y="71.65" connectorname="CAN_N" height="0.699998" x="223.2" id="connector36pin" stroke-width="0" fill="none" width="14.4"/>
  <rect  y="71.65" height="0.699998" x="237.6" id="connector36terminal" stroke-width="0" fill="none" width="0"/>
  <text  y="72.6998" text-anchor="end" x="221.8" id="label36" font-size="3.5" font-family="'Droid Sans'" fill="#8c8c8c" stroke="none">CAN_N</text>
  <line  x1="222.85" x2="237.25" stroke-width="0.699998" y2="79.2" stroke-linejoin="round" stroke-linecap="round" fill="none" stroke="#787878" y1="79.2"/>
  <rect  y="78.8501" connectorname="CAN_INH" height="0.699998" x="223.2" id="connector61pin" stroke-width="0" fill="none" width="14.4"/>
  <rect  y="78.8501" height="0.699998" x="237.6" id="connector61terminal" stroke-width="0" fill="none" width="0"/>
  <text  y="79.8998" text-anchor="end" x="221.8" id="label61" font-size="3.5" font-family="'Droid Sans'" fill="#8c8c8c" stroke="none">CAN_INH</text>
  <line  x1="222.85" x2="237.25" stroke-width="0.699998" y2="86.4" stroke-linejoin="round" stroke-linecap="round" fill="none" stroke="#787878" y1="86.4"/>
  <rect  y="86.0501" connectorname="CAN_IF_SCLK" height="0.699998" x="223.2" id="connector49pin" stroke-width="0" fill="none" width="14.4"/>
  <rect  y="86.0501" height="0.699998" x="237.6" id="connector49terminal" stroke-width="0" fill="none" width="0"/>
  <text  y="87.0998" text-anchor="end" x="221.8" id="label49" font-size="3.5" font-family="'Droid Sans'" fill="#8c8c8c" stroke="none">CAN_IF_SCLK</text>
  <line  x1="222.85" x2="237.25" stroke-width="0.699998" y2="93.6" stroke-linejoin="round" stroke-linecap="round" fill="none" stroke="#787878" y1="93.6"/>
  <rect  y="93.2501" connectorname="CAN_IF_MOSI" height="0.699998" x="223.2" id="connector50pin" stroke-width="0" fill="none" width="14.4"/>
  <rect  y="93.2501" height="0.699998" x="237.6" id="connector50terminal" stroke-width="0" fill="none" width="0"/>
  <text  y="94.2998" text-anchor="end" x="221.8" id="label50" font-size="3.5" font-family="'Droid Sans'" fill="#8c8c8c" stroke="none">CAN_IF_MOSI</text>
  <line  x1="222.85" x2="237.25" stroke-width="0.699998" y2="100.8" stroke-linejoin="round" stroke-linecap="round" fill="none" stroke="#787878" y1="100.8"/>
  <rect  y="100.45" connectorname="CAN_IF_MISO" height="0.699998" x="223.2" id="connector51pin" stroke-width="0" fill="none" width="14.4"/>
  <rect  y="100.45" height="0.699998" x="237.6" id="connector51terminal" stroke-width="0" fill="none" width="0"/>
  <text  y="101.5" text-anchor="end" x="221.8" id="label51" font-size="3.5" font-family="'Droid Sans'" fill="#8c8c8c" stroke="none">CAN_IF_MISO</text>
  <line  x1="222.85" x2="237.25" stroke-width="0.699998" y2="108" stroke-linejoin="round" stroke-linecap="round" fill="none" stroke="#787878" y1="108"/>
  <rect  y="107.65" connectorname="CAN_IF_!CS" height="0.699998" x="223.2" id="connector52pin" stroke-width="0" fill="none" width="14.4"/>
  <rect  y="107.65" height="0.699998" x="237.6" id="connector52terminal" stroke-width="0" fill="none" width="0"/>
  <text  y="108.7" text-anchor="end" x="221.8" id="label52" font-size="3.5" font-family="'Droid Sans'" fill="#8c8c8c" stroke="none">CAN_IF_!CS</text>
  <line  x1="222.85" x2="237.25" stroke-width="0.699998" y2="115.2" stroke-linejoin="round" stroke-linecap="round" fill="none" stroke="#787878" y1="115.2"/>
  <rect  y="114.85" connectorname="CAN_GPO2" height="0.699998" x="223.2" id="connector54pin" stroke-width="0" fill="none" width="14.4"/>
  <rect  y="114.85" height="0.699998" x="237.6" id="connector54terminal" stroke-width="0" fill="none" width="0"/>
  <text  y="115.9" text-anchor="end" x="221.8" id="label54" font-size="3.5" font-family="'Droid Sans'" fill="#8c8c8c" stroke="none">CAN_GPO2</text>
  <line  x1="115.2" x2="115.2" stroke-width="0.699998" y2="14.4" stroke-linejoin="round" stroke-linecap="round" fill="none" stroke="#787878" y1="0.349999"/>
  <rect  y="0" connectorname="5V_OUT" height="14.4" x="114.85" id="connector57pin" stroke-width="0" fill="none" width="0.699998"/>
  <rect  y="0" height="0" x="114.85" id="connector57terminal" stroke-width="0" fill="none" width="0.699998"/>
  <g  transform="matrix(1, 0, 0, 1, 116.6, 16)">
   <g  transform="rotate(270)">
    <text  y="0" text-anchor="end" x="0" id="label57" font-size="3.5" font-family="'Droid Sans'" fill="#8c8c8c" stroke="none">5V_OUT</text>
   </g>
  </g>
  <line  x1="122.4" x2="122.4" stroke-width="0.699998" y2="14.4" stroke-linejoin="round" stroke-linecap="round" fill="none" stroke="#787878" y1="0.349999"/>
  <rect  y="0" connectorname="VDD_IO" height="14.4" x="122.05" id="connector62pin" stroke-width="0" fill="none" width="0.699998"/>
  <rect  y="0" height="0" x="122.05" id="connector62terminal" stroke-width="0" fill="none" width="0.699998"/>
  <g  transform="matrix(1, 0, 0, 1, 123.8, 16)">
   <g  transform="rotate(270)">
    <text  y="0" text-anchor="end" x="0" id="label62" font-size="3.5" font-family="'Droid Sans'" fill="#8c8c8c" stroke="none">VDD_IO</text>
   </g>
  </g>
  <line  x1="115.2" x2="115.2" stroke-width="0.699998" y2="158.05" stroke-linejoin="round" stroke-linecap="round" fill="none" stroke="#787878" y1="144"/>
  <rect  y="144" connectorname="GND" height="14.4" x="114.85" id="connector37pin" stroke-width="0" fill="none" width="0.699998"/>
  <rect  y="158.4" height="0" x="114.85" id="connector37terminal" stroke-width="0" fill="none" width="0.699998"/>
  <g  transform="matrix(1, 0, 0, 1, 116.6, 142.4)">
   <g  transform="rotate(270)">
    <text  y="0" text-anchor="start" x="0" id="label37" font-size="3.5" font-family="'Droid Sans'" fill="#8c8c8c" stroke="none">GND</text>
   </g>
  </g>
  <rect  y="144" connectorname="GND" height="14.4" x="114.85" id="connector44pin" stroke-width="0" fill="none" width="0.699998"/>
  <rect  y="158.4" height="0" x="114.85" id="connector44terminal" stroke-width="0" fill="none" width="0.699998"/>
  <rect  y="144" connectorname="GND" height="14.4" x="114.85" id="connector45pin" stroke-width="0" fill="none" width="0.699998"/>
  <rect  y="158.4" height="0" x="114.85" id="connector45terminal" stroke-width="0" fill="none" width="0.699998"/>
  <rect  y="144" connectorname="GND" height="14.4" x="114.85" id="connector59pin" stroke-width="0" fill="none" width="0.699998"/>
  <rect  y="158.4" height="0" x="114.85" id="connector59terminal" stroke-width="0" fill="none" width="0.699998"/>
  <rect  y="64.45" connectorname="CAN_P" height="0.699998" x="223.2" id="connector56pin" stroke-width="0" fill="none" width="14.4"/>
  <rect  y="64.45" height="0.699998" x="237.6" id="connector56terminal" stroke-width="0" fill="none" width="0"/>
  <rect  y="71.65" connectorname="CAN_N" height="0.699998" x="223.2" id="connector55pin" stroke-width="0" fill="none" width="14.4"/>
  <rect  y="71.65" height="0.699998" x="237.6" id="connector55terminal" stroke-width="0" fill="none" width="0"/>
 </g>
</svg>
