<?xml version='1.0' encoding='UTF-8' standalone='no'?>
<!-- Created with Fritzing (http://www.fritzing.org/) -->
<svg xmlns="http://www.w3.org/2000/svg"  y="0in" height="2.60476in" baseProfile="tiny" x="0in" version="1.2" viewBox="0 0 93.5431 187.543" width="1.29921in">
 <desc >Fritzing footprint generated by brd2svg</desc>
 <g  id="silkscreen">
  <path  stroke-width="0.576" d="M83.0426,0.288L10.5003,0.288L10.5003,124.658L0.288,134.52L0.288,172.67L93.2551,172.67L93.2551,134.52L83.0426,124.658L83.0426,0.288M14.8522,6.34404a1.34476,1.34476,0,1,1,2.68951,0,1.34476,1.34476,0,1,1,-2.68951,0zM80.8603,164.849a1.34476,1.34476,0,1,1,2.68951,0,1.34476,1.34476,0,1,1,-2.68951,0zM9.99382,164.849a1.34476,1.34476,0,1,1,2.68951,0,1.34476,1.34476,0,1,1,-2.68951,0z" fill="none" stroke="white"/>
  <line  x1="58.8047" x2="72.0792" stroke-width="0.708661" y2="112.269" stroke-linecap="round" stroke="white" y1="112.269"/>
  <line  x1="58.8444" x2="71.9122" stroke-width="0.708661" y2="117.969" stroke-linecap="round" stroke="white" y1="117.975"/>
  <line  x1="58.9238" x2="71.0504" stroke-width="0.708661" y2="123.993" stroke-linecap="round" stroke="white" y1="124.044"/>
  <line  x1="72.0792" x2="74.5906" stroke-width="0.708661" y2="109.434" stroke-linecap="round" stroke="white" y1="112.269"/>
  <line  x1="74.5906" x2="74.6194" stroke-width="0.708661" y2="106.611" stroke-linecap="round" stroke="white" y1="109.434"/>
  <line  x1="74.6194" x2="68.0797" stroke-width="0.708661" y2="103.136" stroke-linecap="round" stroke="white" y1="106.611"/>
  <line  x1="68.0797" x2="68.1193" stroke-width="0.708661" y2="86.6441" stroke-linecap="round" stroke="white" y1="103.136"/>
  <line  x1="70.7244" x2="75.1493" stroke-width="0.708661" y2="83.3587" stroke-linecap="round" stroke="white" y1="83.3134"/>
  <line  x1="71.9122" x2="77.0062" stroke-width="0.708661" y2="112.493" stroke-linecap="round" stroke="white" y1="117.969"/>
  <line  x1="77.0062" x2="77.04" stroke-width="0.708661" y2="105.219" stroke-linecap="round" stroke="white" y1="112.493"/>
  <line  x1="77.04" x2="72.5018" stroke-width="0.708661" y2="102.699" stroke-linecap="round" stroke="white" y1="105.219"/>
  <line  x1="72.5018" x2="72.5047" stroke-width="0.708661" y2="92.9707" stroke-linecap="round" stroke="white" y1="102.699"/>
  <line  x1="73.8994" x2="75.6907" stroke-width="0.708661" y2="91.0858" stroke-linecap="round" stroke="white" y1="91.0973"/>
  <line  x1="71.0504" x2="78.9847" stroke-width="0.708661" y2="116.535" stroke-linecap="round" stroke="white" y1="123.993"/>
  <line  x1="78.9847" x2="78.9847" stroke-width="0.708661" y2="101.971" stroke-linecap="round" stroke="white" y1="116.535"/>
  <line  x1="68.1193" x2="70.7244" stroke-width="0.708661" y2="83.3134" stroke-linecap="round" stroke="white" y1="86.6441"/>
  <line  x1="72.5047" x2="73.8994" stroke-width="0.708661" y2="91.0973" stroke-linecap="round" stroke="white" y1="92.9707"/>
  <g >
   <title >element:J1</title>
   <g >
    <title >package:DS1037-09MNAKT74-0CC</title>
    <line  x1="3.21212" x2="90.3319" stroke-width="0.708661" y2="136.241" stroke-linecap="round" stroke="white" y1="136.241"/>
    <line  x1="90.3319" x2="90.3319" stroke-width="0.708661" y2="171.881" stroke-linecap="round" stroke="white" y1="136.241"/>
    <line  x1="90.3319" x2="3.21212" stroke-width="0.708661" y2="171.881" stroke-linecap="round" stroke="white" y1="171.881"/>
    <line  x1="3.21212" x2="3.21212" stroke-width="0.708661" y2="136.241" stroke-linecap="round" stroke="white" y1="171.881"/>
    <line  x1="5.19354" x2="17.0736" stroke-width="0.708661" y2="171.703" stroke-linecap="round" stroke="white" y1="171.703"/>
    <line  x1="17.0736" x2="17.0736" stroke-width="0.708661" y2="187.543" stroke-linecap="round" stroke="white" y1="171.703"/>
    <line  x1="17.0736" x2="5.19354" stroke-width="0.708661" y2="187.543" stroke-linecap="round" stroke="white" y1="187.543"/>
    <line  x1="5.19354" x2="5.19354" stroke-width="0.708661" y2="171.703" stroke-linecap="round" stroke="white" y1="187.543"/>
    <line  x1="76.1904" x2="88.0675" stroke-width="0.708661" y2="171.703" stroke-linecap="round" stroke="white" y1="171.703"/>
    <line  x1="88.0675" x2="88.0675" stroke-width="0.708661" y2="187.543" stroke-linecap="round" stroke="white" y1="171.703"/>
    <line  x1="88.0675" x2="76.1904" stroke-width="0.708661" y2="187.543" stroke-linecap="round" stroke="white" y1="187.543"/>
    <line  x1="76.1904" x2="76.1904" stroke-width="0.708661" y2="171.703" stroke-linecap="round" stroke="white" y1="187.543"/>
    <line  x1="23.0121" x2="70.5321" stroke-width="0.708661" y2="171.703" stroke-linecap="round" stroke="white" y1="171.703"/>
    <line  x1="70.5321" x2="70.5321" stroke-width="0.708661" y2="187.543" stroke-linecap="round" stroke="white" y1="171.703"/>
    <line  x1="70.5321" x2="23.0121" stroke-width="0.708661" y2="187.543" stroke-linecap="round" stroke="white" y1="187.543"/>
    <line  x1="23.0121" x2="23.0121" stroke-width="0.708661" y2="171.703" stroke-linecap="round" stroke="white" y1="187.543"/>
   </g>
  </g>
  <g >
   <title >element:J2</title>
   <g >
    <title >package:HDR-1X9T/2.54/23X2</title>
    <line  x1="17.9716" x2="17.9716" stroke-width="0.708661" y2="101.845" stroke-linecap="round" stroke="white" y1="37.0456"/>
    <line  x1="17.9716" x2="10.7716" stroke-width="0.708661" y2="101.845" stroke-linecap="round" stroke="white" y1="101.845"/>
    <line  x1="10.7716" x2="10.7716" stroke-width="0.708661" y2="37.0456" stroke-linecap="round" stroke="white" y1="101.845"/>
    <line  x1="10.7716" x2="17.9716" stroke-width="0.708661" y2="37.0456" stroke-linecap="round" stroke="white" y1="37.0456"/>
   </g>
  </g>
  <g >
   <title >element:J3</title>
   <g >
    <title >package:HDR-1X9T/2.54/23X2_J3</title>
    <line  x1="75.5719" x2="75.5719" stroke-width="0.708661" y2="37.0456" stroke-linecap="round" stroke="white" y1="101.845"/>
    <line  x1="75.5719" x2="82.7719" stroke-width="0.708661" y2="37.0456" stroke-linecap="round" stroke="white" y1="37.0456"/>
    <line  x1="82.7719" x2="82.7719" stroke-width="0.708661" y2="101.845" stroke-linecap="round" stroke="white" y1="37.0456"/>
    <line  x1="82.7719" x2="75.5719" stroke-width="0.708661" y2="101.845" stroke-linecap="round" stroke="white" y1="101.845"/>
   </g>
  </g>
  <line  x1="3.21212" x2="90.3319" stroke-width="0.576" y2="187.255" fill="none" fill-opacity="1" y1="187.255" stroke="white"/>
  <line  x1="3.21212" x2="3.21212" stroke-width="0.576" y2="172.913" fill="none" fill-opacity="1" y1="187.255" stroke="white"/>
  <line  x1="90.3319" x2="90.3319" stroke-width="0.576" y2="172.913" fill="none" fill-opacity="1" y1="187.255" stroke="white"/>
 </g>
 <g  id="copper1">
  <g  id="copper0">
   <circle  connectorname="CAN_RST" id="connector63pad" stroke-width="0.850392" cy="40.6456" r="1.98426" fill="none" cx="79.1719" stroke="#F7BD13"/>
   <circle  connectorname="1" id="connector35pad" stroke-width="0.992124" cy="140.542" r="2.05512" fill="none" cx="31.0682" stroke="#F7BD13"/>
   <rect  y="138.487" height="4.11024" x="29.013" stroke-width="0.992124" fill="none" stroke="#F7BD13" width="4.11024"/>
   <circle  connectorname="CAN_N" id="connector36pad" stroke-width="0.992124" cy="140.542" r="2.05512" fill="none" cx="38.9202" stroke="#F7BD13"/>
   <circle  connectorname="GND" id="connector37pad" stroke-width="0.992124" cy="140.542" r="2.05512" fill="none" cx="46.7721" stroke="#F7BD13"/>
   <circle  connectorname="4" id="connector38pad" stroke-width="0.992124" cy="140.542" r="2.05512" fill="none" cx="54.6241" stroke="#F7BD13"/>
   <circle  connectorname="5" id="connector39pad" stroke-width="0.992124" cy="140.542" r="2.05512" fill="none" cx="62.4761" stroke="#F7BD13"/>
   <circle  connectorname="6" id="connector40pad" stroke-width="0.992124" cy="148.592" r="2.05512" fill="none" cx="35.1076" stroke="#F7BD13"/>
   <circle  connectorname="CAN_P" id="connector41pad" stroke-width="0.992124" cy="148.592" r="2.05512" fill="none" cx="42.9595" stroke="#F7BD13"/>
   <circle  connectorname="8" id="connector42pad" stroke-width="0.992124" cy="148.592" r="2.05512" fill="none" cx="50.8115" stroke="#F7BD13"/>
   <circle  connectorname="9" id="connector43pad" stroke-width="0.992124" cy="148.592" r="2.05512" fill="none" cx="58.6634" stroke="#F7BD13"/>
   <circle  connectorname="GND" id="connector44pad" stroke-width="2.48031" cy="144.567" r="5.84646" fill="none" cx="11.3391" stroke="#F7BD13"/>
   <circle  connectorname="GND" id="connector45pad" stroke-width="2.48031" cy="144.567" r="5.84646" fill="none" cx="82.2053" stroke="#F7BD13"/>
   <circle  connectorname="CAN_CLOCK_IN" id="connector46pad" stroke-width="0.850392" cy="40.6456" r="1.98426" fill="none" cx="14.3716" stroke="#F7BD13"/>
   <circle  connectorname="CAN_!WKRQ" id="connector47pad" stroke-width="0.850392" cy="47.8456" r="1.98426" fill="none" cx="14.3716" stroke="#F7BD13"/>
   <circle  connectorname="CAN_GPO1" id="connector48pad" stroke-width="0.850392" cy="55.0456" r="1.98426" fill="none" cx="14.3716" stroke="#F7BD13"/>
   <circle  connectorname="CAN_IF_SCLK" id="connector49pad" stroke-width="0.850392" cy="62.2456" r="1.98426" fill="none" cx="14.3716" stroke="#F7BD13"/>
   <circle  connectorname="CAN_IF_MOSI" id="connector50pad" stroke-width="0.850392" cy="69.4456" r="1.98426" fill="none" cx="14.3716" stroke="#F7BD13"/>
   <circle  connectorname="CAN_IF_MISO" id="connector51pad" stroke-width="0.850392" cy="76.6454" r="1.98426" fill="none" cx="14.3716" stroke="#F7BD13"/>
   <circle  connectorname="CAN_IF_!CS" id="connector52pad" stroke-width="0.850392" cy="83.8454" r="1.98426" fill="none" cx="14.3716" stroke="#F7BD13"/>
   <circle  connectorname="CAN_!INT" id="connector53pad" stroke-width="0.850392" cy="91.0454" r="1.98426" fill="none" cx="14.3716" stroke="#F7BD13"/>
   <circle  connectorname="CAN_GPO2" id="connector54pad" stroke-width="0.850392" cy="98.2454" r="1.98426" fill="none" cx="14.3716" stroke="#F7BD13"/>
   <circle  connectorname="CAN_N" id="connector55pad" stroke-width="0.850392" cy="98.2454" r="1.98426" fill="none" cx="79.1719" stroke="#F7BD13"/>
   <circle  connectorname="CAN_P" id="connector56pad" stroke-width="0.850392" cy="91.0454" r="1.98426" fill="none" cx="79.1719" stroke="#F7BD13"/>
   <circle  connectorname="5V_OUT" id="connector57pad" stroke-width="0.850392" cy="83.8454" r="1.98426" fill="none" cx="79.1719" stroke="#F7BD13"/>
   <circle  connectorname="CAN_WAKE" id="connector58pad" stroke-width="0.850392" cy="76.6454" r="1.98426" fill="none" cx="79.1719" stroke="#F7BD13"/>
   <circle  connectorname="GND" id="connector59pad" stroke-width="0.850392" cy="69.4456" r="1.98426" fill="none" cx="79.1719" stroke="#F7BD13"/>
   <circle  connectorname="12V_IN" id="connector60pad" stroke-width="0.850392" cy="62.2456" r="1.98426" fill="none" cx="79.1719" stroke="#F7BD13"/>
   <circle  connectorname="CAN_INH" id="connector61pad" stroke-width="0.850392" cy="55.0456" r="1.98426" fill="none" cx="79.1719" stroke="#F7BD13"/>
   <circle  connectorname="VDD_IO" id="connector62pad" stroke-width="0.850392" cy="47.8456" r="1.98426" fill="none" cx="79.1719" stroke="#F7BD13"/>
  </g>
 </g>
</svg>
